<?xml version="1.0" standalone="no"?>
<!DOCTYPE svg PUBLIC "-//W3C//DTD SVG 20010904//EN"
 "http://www.w3.org/TR/2001/REC-SVG-20010904/DTD/svg10.dtd">
<svg version="1.0" xmlns="http://www.w3.org/2000/svg"
 width="500.000000pt" height="500.000000pt" viewBox="0 0 500.000000 500.000000"
 preserveAspectRatio="xMidYMid meet">

<g transform="translate(0.000000,500.000000) scale(0.100000,-0.100000)"
fill="#000000" stroke="none">
<path d="M2883 3045 c-56 -34 -78 -74 -129 -229 -30 -92 -45 -125 -50 -111 -3
11 -31 94 -62 185 l-57 165 -57 3 c-32 2 -58 0 -58 -4 0 -13 183 -499 193
-511 15 -20 93 -17 102 5 17 40 195 515 195 518 0 12 -41 0 -77 -21z"/>
<path d="M1117 3053 c-4 -3 -7 -26 -7 -50 l0 -43 112 0 112 0 -26 -27 c-45
-49 -48 -64 -48 -238 l0 -166 53 3 52 3 3 213 2 212 70 0 70 0 0 50 0 50 -193
0 c-107 0 -197 -3 -200 -7z"/>
<path d="M1568 3054 c-12 -11 -10 -534 2 -534 20 0 56 23 75 48 14 19 21 47
23 95 3 37 8 67 13 65 5 -2 39 -46 77 -98 l68 -95 67 -3 c37 -2 67 1 67 6 0
26 -100 140 -150 170 -44 26 -50 32 -30 32 43 1 108 36 124 69 23 43 21 138
-4 178 -32 53 -70 66 -205 71 -66 2 -123 1 -127 -4z m222 -114 c11 -11 20 -33
20 -50 0 -46 -31 -70 -90 -70 l-50 0 0 63 c0 35 3 67 7 70 15 16 93 7 113 -13z"/>
<path d="M2165 3048 c-3 -7 -48 -127 -100 -267 -52 -140 -93 -256 -90 -259 3
-3 23 3 46 13 48 22 104 83 120 132 l11 35 29 -28 c20 -19 41 -28 78 -32 49
-4 49 -5 68 -56 l18 -51 58 -3 c31 -2 57 0 57 4 0 13 -183 499 -193 512 -5 6
-29 12 -54 12 -26 0 -45 -5 -48 -12z m84 -227 c29 -90 29 -91 -29 -91 -27 0
-50 5 -50 10 0 25 45 159 51 152 3 -4 16 -36 28 -71z"/>
<path d="M3010 3010 l0 -50 37 0 37 0 -26 -27 c-45 -49 -48 -64 -48 -238 l0
-166 148 3 147 3 3 48 3 47 -95 0 -96 0 0 95 0 94 24 -24 c25 -25 94 -48 129
-43 19 3 22 11 25 50 l3 47 -88 3 -88 3 -3 53 -3 52 96 0 96 0 -3 48 -3 47
-147 3 -148 3 0 -51z"/>
<path d="M3390 2796 l0 -266 145 0 145 0 0 50 0 50 -137 0 -137 0 36 38 c50
52 60 94 56 252 l-3 135 -52 3 -53 3 0 -265z"/>
<path d="M1480 2326 c0 -118 -4 -136 -31 -136 -10 0 -19 -4 -19 -9 0 -19 22
-22 45 -7 24 16 25 20 25 136 0 73 -4 120 -10 120 -6 0 -10 -41 -10 -104z"/>
<path d="M1690 2342 c0 -104 11 -122 78 -122 63 0 82 31 82 131 0 64 -3 79
-15 79 -12 0 -15 -16 -15 -85 0 -90 -8 -105 -59 -105 -39 0 -51 26 -51 111 0
46 -4 79 -10 79 -6 0 -10 -36 -10 -88z"/>
<path d="M2030 2325 c0 -87 3 -105 15 -105 12 0 15 16 15 82 l0 83 55 -83 c75
-112 85 -109 85 23 0 87 -3 105 -15 105 -12 0 -15 -16 -15 -82 l0 -83 -53 82
c-74 116 -87 113 -87 -22z"/>
<path d="M2390 2325 c0 -63 4 -105 10 -105 6 0 10 17 10 39 0 63 20 67 60 10
19 -27 41 -49 48 -49 19 0 14 11 -27 65 l-38 50 39 48 c56 66 23 62 -36 -5
l-46 -53 0 53 c0 28 -4 52 -10 52 -6 0 -10 -42 -10 -105z"/>
<path d="M2700 2325 c0 -63 4 -105 10 -105 6 0 10 42 10 105 0 63 -4 105 -10
105 -6 0 -10 -42 -10 -105z"/>
<path d="M2910 2325 l0 -105 60 0 c33 0 60 4 60 10 0 6 -20 10 -45 10 l-45 0
0 40 0 40 45 0 c25 0 45 5 45 10 0 6 -20 10 -45 10 -45 0 -45 0 -45 35 0 35 0
35 45 35 25 0 45 5 45 10 0 6 -27 10 -60 10 l-60 0 0 -105z"/>
<path d="M3218 2419 c-22 -12 -24 -62 -3 -79 8 -7 30 -20 48 -29 66 -33 38
-81 -40 -66 -27 5 -34 3 -31 -7 3 -8 25 -14 56 -16 45 -3 53 0 68 23 23 36 6
70 -45 91 -44 17 -58 39 -39 61 9 11 23 13 51 9 29 -5 38 -3 35 6 -6 16 -77
21 -100 7z"/>
</g>
</svg>
